<svg xmlns="http://www.w3.org/2000/svg" xmlns:xlink="http://www.w3.org/1999/xlink" width="240" height="240" viewBox="0 0 180 180"><defs><symbol overflow="visible" id="a"><path style="stroke:none" d="M3.172 0v-24.344H6.39V0zm0 0"/></symbol><symbol overflow="visible" id="b"><path style="stroke:none" d="M2.234 0v-17.625h2.704v2.5c1.289-1.938 3.16-2.906 5.609-2.906 1.062 0 2.035.195 2.922.578.894.375 1.562.875 2 1.5.445.617.758 1.351.937 2.203.102.555.157 1.523.157 2.906V0h-2.985v-10.719c0-1.219-.117-2.129-.344-2.734-.23-.602-.64-1.082-1.234-1.438-.594-.363-1.293-.546-2.094-.546-1.273 0-2.37.406-3.297 1.218-.918.805-1.375 2.336-1.375 4.594V0zm0 0"/></symbol><symbol overflow="visible" id="c"><path style="stroke:none" d="m8.766-2.672.437 2.64C8.36.146 7.602.235 6.938.235c-1.086 0-1.93-.172-2.532-.515-.593-.344-1.011-.79-1.25-1.344-.242-.563-.36-1.738-.36-3.531v-10.157H.595v-2.312h2.203V-22l2.969-1.797v6.172h3v2.313h-3V-5c0 .855.05 1.406.156 1.656.101.242.273.434.516.578.238.137.578.204 1.015.204.332 0 .77-.036 1.313-.11zm0 0"/></symbol><symbol overflow="visible" id="d"><path style="stroke:none" d="m14.313-5.672 3.093.375c-.492 1.805-1.398 3.203-2.718 4.203-1.313 1-2.997 1.5-5.047 1.5-2.575 0-4.618-.789-6.125-2.375C2.004-3.562 1.25-5.797 1.25-8.672c0-2.957.758-5.254 2.281-6.89 1.531-1.645 3.516-2.47 5.953-2.47 2.352 0 4.274.805 5.766 2.407 1.5 1.605 2.25 3.867 2.25 6.781 0 .18-.008.446-.016.797H4.328c.113 1.938.66 3.422 1.64 4.453.989 1.024 2.22 1.531 3.688 1.531 1.102 0 2.04-.285 2.813-.859.77-.57 1.383-1.488 1.844-2.75zM4.5-10.516h9.844c-.137-1.476-.512-2.586-1.125-3.328-.961-1.156-2.196-1.734-3.703-1.734-1.375 0-2.532.465-3.47 1.39-.929.918-1.444 2.141-1.546 3.672zm0 0"/></symbol><symbol overflow="visible" id="e"><path style="stroke:none" d="m1.688 1.469 2.906.422c.125.894.46 1.55 1.015 1.968.739.551 1.754.829 3.047.829 1.375 0 2.438-.282 3.188-.844.758-.555 1.27-1.324 1.531-2.313.156-.617.227-1.894.219-3.843C12.289-.77 10.664 0 8.719 0c-2.43 0-4.309-.875-5.64-2.625-1.325-1.75-1.985-3.848-1.985-6.297 0-1.676.3-3.223.906-4.64.613-1.426 1.5-2.524 2.656-3.297 1.157-.782 2.516-1.172 4.078-1.172 2.082 0 3.797.843 5.141 2.531v-2.125h2.766v15.234c0 2.75-.282 4.692-.844 5.829-.563 1.144-1.45 2.05-2.656 2.718-1.211.664-2.7 1-4.47 1-2.105 0-3.808-.476-5.108-1.422-1.293-.949-1.918-2.37-1.876-4.265zM4.171-9.125c0 2.313.457 4 1.375 5.063C6.46-3 7.613-2.47 9-2.47c1.375 0 2.523-.523 3.453-1.578.926-1.062 1.39-2.723 1.39-4.984 0-2.156-.48-3.781-1.437-4.875-.96-1.102-2.11-1.656-3.453-1.656-1.336 0-2.465.542-3.39 1.624-.93 1.086-1.391 2.688-1.391 4.813zm0 0"/></symbol><symbol overflow="visible" id="f"><path style="stroke:none" d="M2.203 0v-17.625h2.688v2.672c.687-1.25 1.32-2.07 1.906-2.469a3.285 3.285 0 0 1 1.922-.61c1.008 0 2.031.325 3.062.97l-1.015 2.765c-.743-.426-1.477-.64-2.204-.64-.648 0-1.23.199-1.75.593-.523.387-.898.93-1.125 1.625-.324 1.063-.484 2.227-.484 3.485V0zm0 0"/></symbol><symbol overflow="visible" id="g"><path style="stroke:none" d="M13.75-2.172c-1.105.938-2.172 1.606-3.203 2A9.33 9.33 0 0 1 7.25.406c-1.938 0-3.43-.472-4.469-1.422-1.031-.945-1.547-2.16-1.547-3.64 0-.852.192-1.633.579-2.344.394-.719.91-1.29 1.546-1.719a7.285 7.285 0 0 1 2.157-1c.582-.144 1.468-.289 2.656-.437 2.406-.29 4.18-.633 5.328-1.031.008-.407.016-.665.016-.782 0-1.219-.282-2.078-.844-2.578-.774-.676-1.906-1.015-3.406-1.015-1.407 0-2.45.25-3.125.75-.668.492-1.157 1.359-1.47 2.609l-2.921-.39c.258-1.259.691-2.27 1.297-3.032.613-.77 1.492-1.363 2.64-1.781 1.157-.414 2.493-.625 4.016-.625 1.5 0 2.719.18 3.656.531.946.355 1.641.805 2.079 1.344.445.531.757 1.21.937 2.031.094.512.14 1.43.14 2.75v3.984c0 2.782.063 4.543.188 5.282.133.73.39 1.433.766 2.109h-3.125c-.313-.625-.512-1.348-.594-2.172zm-.25-6.672c-1.086.438-2.715.813-4.89 1.125-1.22.18-2.087.375-2.594.594a2.614 2.614 0 0 0-1.188.969c-.273.43-.406.902-.406 1.422 0 .804.297 1.468.89 2 .602.53 1.489.796 2.657.796 1.156 0 2.18-.25 3.078-.75.894-.507 1.55-1.203 1.969-2.078.32-.675.484-1.671.484-2.984zm0 0"/></symbol></defs><path style="stroke:none;fill-rule:nonzero;fill:#000;fill-opacity:1" d="M20 136.68h139.82v1H20zm0 0"/><path style="stroke:none;fill-rule:nonzero;fill:#000;fill-opacity:1" d="M52.469 3.98v172.04h-1V3.98zm0 0"/><use xlink:href="#a" x="24.767" y="28.98" style="fill:#000;fill-opacity:1"/><use xlink:href="#b" x="20.024" y="75.054" style="fill:#000;fill-opacity:1"/><use xlink:href="#c" x="68.707" y="75.054" style="fill:#000;fill-opacity:1"/><use xlink:href="#d" x="20.024" y="120.734" style="fill:#000;fill-opacity:1"/><use xlink:href="#e" x="63.964" y="120.734" style="fill:#000;fill-opacity:1"/><use xlink:href="#f" x="110.472" y="120.734" style="fill:#000;fill-opacity:1"/><use xlink:href="#d" x="63.964" y="168.414" style="fill:#000;fill-opacity:1"/><use xlink:href="#g" x="106.904" y="168.414" style="fill:#000;fill-opacity:1"/><use xlink:href="#c" x="150.088" y="168.414" style="fill:#000;fill-opacity:1"/></svg>