<svg xmlns="http://www.w3.org/2000/svg" xmlns:xlink="http://www.w3.org/1999/xlink" viewBox="0 0 256 256"><defs><symbol id="a" overflow="visible"><path d="M4.48 0v-34.36h4.55V0zm0 0"/></symbol><symbol id="b" overflow="visible"><path d="M3.17 0v-24.9h3.8v3.54c1.82-2.73 4.46-4.1 7.92-4.1 1.5 0 2.88.28 4.13.82a6.44 6.44 0 012.82 2.1 8.15 8.15 0 011.32 3.13c.15.79.23 2.15.23 4.1V0h-4.22v-15.14c0-1.72-.17-3-.5-3.86a3.98 3.98 0 00-1.73-2.03A5.54 5.54 0 0014-21.8c-1.8 0-3.36.58-4.66 1.72-1.3 1.14-1.95 3.3-1.95 6.49V0zm0 0"/></symbol><symbol id="c" overflow="visible"><path d="M12.38-3.78l.6 3.73C11.8.2 10.73.33 9.8.33A7.31 7.31 0 016.23-.4a4.1 4.1 0 01-1.78-1.92c-.34-.8-.51-2.46-.51-4.99v-14.3H.84v-3.3h3.1v-6.16l4.2-2.53v8.7h4.23v3.28H8.14v14.55c0 1.2.07 1.98.22 2.33.14.34.38.62.72.82.34.2.83.3 1.45.3.47 0 1.08-.05 1.85-.17zm0 0"/></symbol><symbol id="d" overflow="visible"><path d="M20.2-8.02l4.36.54a10.62 10.62 0 01-3.83 5.93C18.88-.15 16.51.56 13.63.56 9.97.56 7.08-.55 4.95-2.8c-2.12-2.25-3.18-5.4-3.18-9.43 0-4.2 1.07-7.44 3.23-9.75 2.16-2.32 4.95-3.47 8.4-3.47a10.6 10.6 0 018.13 3.4c2.11 2.26 3.17 5.45 3.17 9.55l-.01 1.13H6.12c.16 2.74.93 4.83 2.32 6.3a6.93 6.93 0 005.2 2.16c1.55 0 2.88-.4 3.97-1.21a8.05 8.05 0 002.6-3.9zM6.36-14.84h13.89c-.19-2.1-.72-3.66-1.6-4.7a6.46 6.46 0 00-5.21-2.44 6.7 6.7 0 00-4.9 1.95 7.61 7.61 0 00-2.18 5.19zm0 0"/></symbol><symbol id="e" overflow="visible"><path d="M2.4 2.06l4.1.61c.16 1.27.64 2.2 1.42 2.77 1.05.78 2.49 1.17 4.3 1.17 1.94 0 3.45-.4 4.51-1.17a5.77 5.77 0 002.16-3.28c.22-.86.32-2.66.31-5.43A8.66 8.66 0 0112.31 0C8.88 0 6.23-1.23 4.36-3.7a14.27 14.27 0 01-2.81-8.9c0-2.37.42-4.56 1.28-6.56.86-2 2.11-3.56 3.75-4.65a10.09 10.09 0 015.75-1.64 8.92 8.92 0 017.26 3.56v-3h3.9v21.52c0 3.87-.4 6.61-1.2 8.23a8.56 8.56 0 01-3.74 3.84c-1.71.94-3.82 1.4-6.32 1.4-2.96 0-5.37-.66-7.2-2-1.82-1.34-2.7-3.35-2.64-6.04zm3.5-14.95c0 3.26.64 5.64 1.93 7.14A6.19 6.19 0 0012.7-3.5c1.94 0 3.57-.74 4.88-2.23 1.31-1.5 1.97-3.83 1.97-7.02 0-3.05-.68-5.35-2.03-6.9a6.23 6.23 0 00-4.88-2.32c-1.87 0-3.47.77-4.78 2.3-1.31 1.52-1.97 3.78-1.97 6.78zm0 0"/></symbol><symbol id="f" overflow="visible"><path d="M3.13 0v-24.9h3.8v3.77c.96-1.75 1.85-2.92 2.66-3.48a4.7 4.7 0 012.72-.84c1.42 0 2.86.45 4.33 1.36l-1.45 3.9a6.1 6.1 0 00-3.1-.9c-.91 0-1.74.27-2.48.82a4.51 4.51 0 00-1.56 2.32c-.47 1.5-.7 3.14-.7 4.92V0zm0 0"/></symbol><symbol id="g" overflow="visible"><path d="M19.4-3.08a15.72 15.72 0 01-4.5 2.83c-1.45.54-3 .81-4.65.81-2.74 0-4.84-.66-6.31-2a6.64 6.64 0 01-2.2-5.12 6.83 6.83 0 013.01-5.77c.9-.61 1.9-1.08 3.03-1.39.83-.22 2.08-.42 3.75-.62 3.4-.41 5.92-.9 7.53-1.46l.02-1.1c0-1.73-.4-2.93-1.19-3.63-1.09-.96-2.69-1.44-4.81-1.44-1.98 0-3.45.35-4.4 1.05-.94.7-1.64 1.93-2.09 3.69l-4.12-.57c.37-1.75.99-3.18 1.84-4.26a8.11 8.11 0 013.74-2.52 16.7 16.7 0 015.64-.87c2.12 0 3.85.25 5.17.75a6.84 6.84 0 012.94 1.89c.62.75 1.06 1.7 1.3 2.86.15.72.23 2.01.23 3.89v5.62c0 3.93.08 6.42.26 7.46A9.36 9.36 0 0024.66 0h-4.41a8.94 8.94 0 01-.84-3.08zm-.34-9.42a30.95 30.95 0 01-6.89 1.6c-1.74.24-2.97.53-3.69.84-.71.31-1.27.77-1.67 1.37-.38.6-.58 1.28-.58 2 0 1.13.43 2.07 1.29 2.82.85.75 2.1 1.12 3.73 1.12s3.07-.35 4.33-1.06a6.51 6.51 0 002.8-2.92c.45-.95.68-2.36.68-4.22zm0 0"/></symbol></defs><g fill="#1e79c3"><path d="M29.5 192.7h196.8v1H29.5zm0 0"/><path d="M74.8 8.2v239.6h-1V8.2zm0 0"/><use x="36.33" y="43.2" xlink:href="#a"/><use x="29.65" y="107.76" xlink:href="#b"/><use x="97.93" y="107.76" xlink:href="#c"/><use x="29.65" y="171.96" xlink:href="#d"/><use x="91.25" y="171.96" xlink:href="#e"/><use x="156.88" y="171.96" xlink:href="#f"/><use x="91.25" y="237.16" xlink:href="#d"/><use x="151.85" y="237.16" xlink:href="#g"/><use x="212.63" y="237.16" xlink:href="#c"/></g></svg>