<svg xmlns="http://www.w3.org/2000/svg" xmlns:xlink="http://www.w3.org/1999/xlink" width="256" height="256" viewBox="0 0 128 128"><defs><symbol id="a" overflow="visible"><path d="M2.23 0v-17.19h2.29V0zm0 0"/></symbol><symbol id="b" overflow="visible"><path d="M1.58 0v-12.45h1.9v1.78a4.46 4.46 0 013.96-2.06c.75 0 1.43.13 2.06.4.63.28 1.1.63 1.42 1.06.31.44.53.97.66 1.57.08.38.12 1.07.12 2.04V0H9.6v-7.58c0-.85-.1-1.49-.26-1.92a2.05 2.05 0 00-.87-1.02c-.42-.25-.9-.39-1.47-.39-.9 0-1.67.3-2.33.86-.65.58-.98 1.66-.98 3.25V0zm0 0"/></symbol><symbol id="c" overflow="visible"><path d="M6.19-1.9L6.5-.02c-.6.13-1.13.2-1.6.2-.77 0-1.36-.12-1.8-.36a2.12 2.12 0 01-.88-.97 7.7 7.7 0 01-.25-2.48v-7.17H.42v-1.64h1.55v-3.08l2.1-1.27v4.35h2.12v1.64H4.06v7.28c0 .6.04 1 .11 1.17.08.17.2.3.38.4.16.1.4.15.72.15.22 0 .53-.03.92-.08zm0 0"/></symbol><symbol id="d" overflow="visible"><path d="M10.1-4.02l2.18.29a5.36 5.36 0 01-1.9 2.96A5.76 5.76 0 016.8.28a5.73 5.73 0 01-4.34-1.67C1.4-2.52.87-4.1.87-6.13c0-2.09.54-3.71 1.61-4.87a5.5 5.5 0 014.2-1.73c1.67 0 3.03.57 4.09 1.7 1.06 1.14 1.59 2.73 1.59 4.78 0 .13 0 .31-.02.56H3.06a4.72 4.72 0 001.16 3.14c.7.73 1.57 1.1 2.6 1.1.78 0 1.43-.2 1.98-.61.55-.4.99-1.06 1.3-1.96zm-6.93-3.4h6.96a4.28 4.28 0 00-.8-2.36A3.22 3.22 0 006.72-11c-.97 0-1.79.33-2.45.98a3.85 3.85 0 00-1.1 2.6zm0 0"/></symbol><symbol id="e" overflow="visible"><path d="M1.2 1.03l2.05.31c.08.63.32 1.09.72 1.38.52.4 1.23.6 2.14.6.98 0 1.73-.2 2.26-.6.54-.39.9-.93 1.08-1.64.1-.43.15-1.33.14-2.7A4.31 4.31 0 016.16 0a4.7 4.7 0 01-3.97-1.84A7.16 7.16 0 01.79-6.3c0-1.18.2-2.28.63-3.28a5.1 5.1 0 011.86-2.33 5.07 5.07 0 012.9-.82c1.46 0 2.67.59 3.62 1.78v-1.5h1.95V-1.7c0 1.94-.2 3.3-.6 4.11a4.36 4.36 0 01-1.87 1.92c-.85.47-1.9.7-3.15.7a6 6 0 01-3.61-1c-.91-.66-1.35-1.67-1.32-3zm1.74-7.48c0 1.63.32 2.83.97 3.58a3.13 3.13 0 002.45 1.12c.97 0 1.78-.37 2.44-1.1.65-.76.98-1.93.98-3.52 0-1.52-.34-2.67-1.01-3.44a3.14 3.14 0 00-2.46-1.17c-.93 0-1.73.38-2.39 1.14-.65.76-.98 1.89-.98 3.39zm0 0"/></symbol><symbol id="f" overflow="visible"><path d="M1.56 0v-12.45h1.9v1.89c.48-.89.93-1.47 1.34-1.75.41-.28.86-.42 1.36-.42.7 0 1.43.23 2.17.68l-.74 1.96a3.03 3.03 0 00-1.54-.46c-.46 0-.88.14-1.25.43-.37.27-.63.65-.78 1.14a8.38 8.38 0 00-.35 2.46V0zm0 0"/></symbol><symbol id="g" overflow="visible"><path d="M9.7-1.53A6.54 6.54 0 015.12.28c-1.36 0-2.41-.33-3.15-1a3.3 3.3 0 01-1.1-2.56 3.43 3.43 0 011.5-2.88 4.9 4.9 0 011.52-.7c.41-.1 1.04-.2 1.88-.31 1.7-.2 2.96-.46 3.76-.74 0-.28.02-.46.02-.54 0-.85-.2-1.46-.61-1.82-.53-.47-1.33-.71-2.4-.71-1 0-1.73.18-2.2.53-.46.34-.82.96-1.04 1.84l-2.07-.28c.2-.88.5-1.6.93-2.14a4.05 4.05 0 011.86-1.25c.8-.3 1.75-.45 2.82-.45 1.07 0 1.93.12 2.6.37a3.4 3.4 0 011.47.95c.3.38.53.86.65 1.44.06.36.1 1 .1 1.94v2.81c0 1.96.04 3.2.14 3.72s.27 1.02.53 1.5h-2.2a4.45 4.45 0 01-.43-1.53zm-.17-4.72c-.77.31-1.92.58-3.45.8-.87.12-1.48.26-1.85.42-.35.16-.63.39-.82.69-.2.3-.29.63-.29 1 0 .56.21 1.03.63 1.4.43.38 1.05.56 1.88.56.8 0 1.53-.17 2.17-.53.63-.35 1.1-.83 1.39-1.45.22-.48.34-1.18.34-2.1zm0 0"/></symbol></defs><g fill="#1e79c3"><path d="M13.5 97.1h100.4v1H13.5zm0 0"/><path d="M37.4 2.6v122.8h-1V2.6zm0 0"/><use x="17.17" y="20.6" xlink:href="#a"/><use x="13.83" y="53.38" xlink:href="#b"/><use x="48.97" y="53.38" xlink:href="#c"/><use x="13.83" y="85.98" xlink:href="#d"/><use x="45.63" y="85.98" xlink:href="#e"/><use x="78.94" y="85.98" xlink:href="#f"/><use x="45.63" y="119.58" xlink:href="#d"/><use x="76.43" y="119.58" xlink:href="#g"/><use x="107.07" y="119.58" xlink:href="#c"/></g></svg>